# xmcd
#
# Track frame offsets: 
#        150
#        6100
#        34972
#        48170
#        66944
#        73312
#        100036
#        109865
#        131235
#        137479
#        166382
#        179084
#        198834
#        207708
#        228814
#        245882
#        262788
#        267054
#        296943
#        306902
#
# Disc length: 4369 seconds
#
# Revision: 0
# Processed by: cddbd v1.5.2PL0 Copyright (c) Steve Scherf et al.
# Submitted via: ExactAudioCopy v0.99pb4
#
DISCID=34110f14
DTITLE=Hank Williams - Mother's Best [CD5]
DYEAR=1951
DGENRE=Country
TTITLE0=Mother's Best 6-A1
TTITLE1=Dear John
TTITLE2=I'm Satified With Life (Audrey)
TTITLE3=Somethin Got Ahold Of Me
TTITLE4=Mother's Best 6-A2
TTITLE5=At The First Fall Of Snow
TTITLE6=I Like That Kind (Audrey)
TTITLE7=When God Dips His Love In My Heart
TTITLE8=Mother's Best 6-B1
TTITLE9=Wedding Bells
TTITLE10=Tight Wad Daddy (Audrey)
TTITLE11=Where The Soul Of Man Never Dies
TTITLE12=Mother's Best 6-B2
TTITLE13=Why Don't You Love
TTITLE14=Blue Love In My Heart (Audrey)
TTITLE15=Dear Brother
TTITLE16=Mother's Best 7-A1
TTITLE17=Faded Love And Winter Roses
TTITLE18=Fire On The Mountain
TTITLE19=I Heard My Saviour Call
EXTD=
EXTT0=
EXTT1=
EXTT2=
EXTT3=
EXTT4=
EXTT5=
EXTT6=
EXTT7=
EXTT8=
EXTT9=
EXTT10=
EXTT11=
EXTT12=
EXTT13=
EXTT14=
EXTT15=
EXTT16=
EXTT17=
EXTT18=
EXTT19=
PLAYORDER=
